PathFileType	4	(X/Y/Z)	T1_P2_Vision_NoMovement_4_0-734.trc
DataRate	CameraRate	NumFrames	NumMarkers	Units	OrigDataRate	OrigDataStartFrame	OrigNumFrames
60	60	7	27	m	60	183	734
Frame#	Time	RHip			RKnee			RAnkle			RBigToe			RSmallToe			RHeel			LHip			LKnee			LAnkle			LBigToe			LSmallToe			LHeel			Neck			Head			Nose			RShoulder			RElbow			RWrist			RThumb			RIndex			RPinky			LShoulder			LElbow			LWrist			LThumb			LIndex			LPinky		
		X1	Y1	Z1	X2	Y2	Z2	X3	Y3	Z3	X4	Y4	Z4	X5	Y5	Z5	X6	Y6	Z6	X7	Y7	Z7	X8	Y8	Z8	X9	Y9	Z9	X10	Y10	Z10	X11	Y11	Z11	X12	Y12	Z12	X13	Y13	Z13	X14	Y14	Z14	X15	Y15	Z15	X16	Y16	Z16	X17	Y17	Z17	X18	Y18	Z18	X19	Y19	Z19	X20	Y20	Z20	X21	Y21	Z21	X22	Y22	Z22	X23	Y23	Z23	X24	Y24	Z24	X25	Y25	Z25	X26	Y26	Z26	X27	Y27	Z27
184	3.066666666666667	459.33119819490935	3634.7086450086513	642.761716294818	845.4755128142543	3703.6546254958603	649.763864063222	1206.690424240188	3713.9584597068224	671.2886878385776	1295.306028257658	3644.3211681417442	650.848664597566	1289.2491638738088	3685.735723586383	604.1335936201517	1281.567508760201	3797.791448778938	741.7193306384911	465.0873289484805	3598.1612752887704	850.2857108212495	844.8806820035785	3590.481658866047	852.6040640386641	1236.6789683084048	3672.964310204018	852.028078343468	1310.1486449479223	3562.7081676808284	812.4925104448592	1291.4020017112878	3532.755828916955	848.3857407383044	1266.4495268308062	3702.6843252478902	855.5227764476791	-120.99039651725076	3615.837122588054	757.7897180519917	-386.19929021541475	3564.3584398720386	707.0108032841417	-233.65233302768908	3446.8119970507573	681.1953406213988	-27.95935659179167	3680.701921930406	598.6372724388596	206.07415273001442	3623.1839818036065	519.2119030546597	364.40332496400777	3500.7996837949713	623.2535470936001	414.62314752505205	3417.411356494126	691.0248915102975	446.138510247791	3440.9113390750235	703.8173722566916	480.4111876014596	3471.0281279479113	713.9781895941737	-29.658658055029694	3529.1248685328223	901.770335516513	232.18006769881757	3489.252547940802	919.4020040115163	366.6684719229375	3366.754964913329	704.6672530428343	404.6168893112861	3398.2127365027563	608.6600324250581	445.36648265641924	3409.6596631167395	599.0013111735701	478.7164825193137	3410.567799695099	680.6366469610444
185	3.0833333333333335	459.3127870418673	3634.6838230239537	642.6987060819555	839.5930171090041	3699.408793209583	648.6769969315195	1214.1992349976933	3731.442114481592	685.4593711422154	1302.7450683698544	3661.6062299055243	663.7998003771246	1289.1223477161639	3686.4429008320258	604.4551665116969	1275.4397804579237	3793.5913249761834	740.8062230948173	470.28968530686575	3599.600160280974	851.263008426221	844.916206661041	3591.035242934962	852.7054812773368	1233.7908771891878	3679.117338934009	855.5054281178216	1301.700403846098	3540.738908633456	804.6748086719289	1288.0188853065024	3538.2616079411937	845.8017645446326	1271.4200675690586	3731.3520701174343	866.3314101084438	-125.18036874556933	3620.029457509443	759.9855005219873	-386.2826995441564	3564.311658559782	706.953681516082	-237.8963262978716	3450.2862493202556	683.0067516216625	-32.32989628608206	3679.717174790696	598.3554518263373	205.90913743534392	3623.2319926506725	519.2449505459101	362.32147278946087	3518.7003077679633	627.7961189788263	414.44546873766603	3423.1816322258737	683.5197619909679	445.9606360315356	3441.2119560992605	703.6167834168748	483.4651895249534	3491.392458779158	720.1752658286869	-29.705317322368046	3529.1358200861614	901.6410550592934	226.95861097538386	3485.384036666785	917.5844350338086	366.7659718565138	3369.4937250602693	700.277517357238	407.9458383448102	3394.6386420197473	606.7461312548063	441.4671217162616	3407.671270554246	603.0966289873191	481.3485463984686	3429.7919955873385	686.4404986916767
186	3.1	459.3121807418916	3634.3670735610503	642.5509912830283	834.4779600491928	3680.452868009442	642.7894766990984	1214.1811934503949	3731.1181468239165	685.3373361048244	1294.8452870677322	3643.954569810992	650.1043161009051	1289.0477495860334	3686.086842307732	604.5822968341994	1281.5313645186532	3797.9684319825947	741.802148223163	464.84001368587184	3597.8077861731063	850.0760804406383	848.0313950623355	3585.5044479141206	849.6612148702193	1236.6548365525832	3672.983427118243	851.9349416722463	1309.7665338148508	3561.943738774679	811.8250314694128	1290.8066788862725	3533.740239787562	843.0360213454403	1263.7829481355088	3708.5013448861405	858.7618865656304	-125.2818596189703	3619.828407467037	759.881010933503	-381.92767586353114	3561.175881259245	705.1824863033753	-237.97984042065602	3450.056208134169	682.9732097045652	-36.59663383195359	3683.8582711914996	600.5148456103584	205.99619587797562	3623.24364056573	519.2295297001532	362.309969254834	3518.578391039258	627.763035331378	414.4524471371663	3423.267013921105	683.758486711475	446.0680373894856	3441.290766285114	703.7314923612155	483.49701403840083	3491.461766617384	720.2930429229029	-29.66761534350511	3529.338998609576	901.7960884731751	227.03437083736898	3485.5034285130228	917.6002875675669	366.7933902250553	3369.4573346542106	700.2923222091047	407.9441350704529	3394.7856865119343	606.9853751092687	441.5418571999956	3407.6865593279686	603.1592750704764	481.36248608769927	3429.6278801522467	686.4151841012965
187	3.1166666666666667	459.3070732511964	3634.4981172184575	642.5738798033357	839.6858918161424	3701.748398673686	648.3984302355208	1214.3471160020335	3731.46850910681	685.5467119738616	1294.6518271826221	3643.6475928303885	649.9176154083092	1286.4429776210552	3691.2303086294364	607.3722368398279	1287.9371503454202	3802.740596304435	742.9993146898117	465.15133309064447	3598.2001909587093	850.2396757360333	848.2410185303095	3585.6575319555936	849.7502593135983	1236.7568496654244	3672.978675153109	851.8942236533524	1308.186488447985	3544.813674089642	805.9554818358653	1288.4284113815224	3538.9796880060135	846.0632151591391	1264.0269965788239	3708.4650352219505	858.720676874346	-125.3790578020612	3619.719577636569	759.9023847908965	-387.3595684787345	3580.265261267539	721.2556830211713	-238.04134470870665	3449.8625725059374	682.7849020753752	-36.52322198405266	3682.8890689979803	605.1669844060698	205.9465757097397	3623.19771769735	519.2028749141568	367.04427361818307	3520.8851233219	629.0306040872839	414.7166398858487	3424.0255157917404	684.4869904304646	446.53917749925336	3441.4503488201003	703.8699573679517	480.4761945979351	3471.486998298751	714.0997116516074	-29.727938271555278	3529.2088010024017	901.7797532790763	232.08507418822515	3489.66654274758	919.6996077605423	366.67833799643364	3366.6626614182996	704.5282316765698	407.7497729939065	3391.5433072847104	609.8077391840743	445.3628887088478	3409.1395420397826	604.2401843238547	481.3757515141373	3429.9041293164223	686.6505140680412
188	3.1333333333333333	459.2994964421783	3634.379961390031	642.5550218640677	834.5452377752248	3680.3431346889065	642.7288080354872	1214.1667845619017	3731.26660423332	685.3303812496755	1294.799772941537	3644.356023377348	650.0700819534879	1286.6002780371973	3691.5307993311626	607.3135891663694	1281.6040175493843	3798.0615983663847	741.8105917640212	470.30150459626964	3599.6084285455613	851.1897689054026	848.1755072210601	3585.763241044287	849.7666858210362	1236.5958990999122	3672.929974034634	851.9037591423177	1309.7130055803668	3562.1174480750833	811.9967295029804	1288.3637932127272	3538.8963411676787	846.1144446128519	1263.7123885052965	3708.307197778749	858.6969006377575	-125.29665633636742	3619.7831250934946	759.9750179788663	-386.32429583711337	3564.6869920334957	707.0560935922643	-238.01997038114555	3449.8746110627544	682.8793403532147	-36.510957607149834	3682.87672207268	605.1692237149812	205.95100570906564	3623.225734405678	519.1638920574828	367.00238143626945	3520.419779764032	628.8390550615034	411.8309292628633	3403.6238209738603	678.0457082789568	445.96716687196465	3441.3636107145344	703.8481322593167	480.3750441588884	3471.2552848042606	713.8609671096818	-34.01319427909686	3525.3904368721946	899.9948803714946	232.31888358449737	3489.3673272348983	919.4160822107833	366.74779936011566	3366.6980653582264	704.541138046332	407.97397997886424	3394.4793417340766	606.493824966264	441.2833417867151	3407.863650520222	603.1878192925208	478.37361177760226	3410.10776031663	680.3284630090175
189	3.15	459.32209140132915	3634.449980757186	642.6031318536388	834.6804304125525	3680.345117168074	642.776893424569	1206.5405481383116	3714.0405822892476	671.3291794946293	1294.8507120736735	3643.636048827275	650.1510349633929	1286.5704405498793	3691.429311022153	607.5154464133328	1281.4358393770665	3797.870263899744	741.7622410644208	465.04080668989366	3597.988435896691	850.1378061696864	848.3050977484937	3585.699622794661	849.7913431900697	1236.7430730491183	3673.1575393983826	852.0421298153766	1310.195608554231	3562.681711119017	812.2838165974193	1291.1422669996207	3534.4216392600465	843.3523863416377	1263.8131816844837	3708.4556843195132	858.8146267890841	-125.2498028008578	3619.713381397497	759.981690684608	-386.36350029482475	3564.7312072276186	707.1093621512758	-237.19048589019013	3429.9239040819357	677.0822274769567	-32.16131902137557	3684.118819085603	605.6397737143325	205.98398150943711	3623.1859210415905	519.2182419131981	364.41476223759264	3500.7308112462406	623.229410924164	414.67343319147636	3417.361515233327	690.9934720036364	443.06603038726536	3421.2835888292907	698.0676270616582	480.3972951173174	3471.168497343987	713.9080222910115	-34.482021092271964	3533.7712619356926	904.4572423599296	232.44334566839066	3489.176240025597	919.2557484734112	366.86896478216204	3369.4759766943976	700.2849886577291	407.9673698111746	3394.365990160412	606.4714287097812	445.5950774587974	3409.05981069792	604.0855764701888	481.58003444003714	3429.723152731065	686.4705081840043
190	3.1666666666666665	459.377916046998	3634.5858559031926	642.6660150830618	845.5565884840443	3703.4632226566473	649.655190508151	1206.7471477952397	3713.9207301636898	671.1946151030834	1294.6804226983047	3643.2157957595273	649.6849934489628	1286.6703758098486	3691.227753007422	607.1506865029096	1287.7620509419767	3802.3100186787797	742.770419059777	470.3721071889323	3599.5588709993917	851.240225329508	850.9771189569453	3592.2144765607527	853.9205922799923	1233.782122302981	3679.0097445653696	855.435715401547	1316.1776706897588	3565.929309236254	813.1193520692965	1288.89186137862	3537.659762206337	851.163791720186	1263.60986024656	3708.4535771497335	858.7710790478785	-125.32634644779786	3620.0125110945282	760.0028653929861	-386.35206209044264	3564.5898162217827	707.0537370927074	-237.97170830940064	3450.1259580054025	682.8930076324096	-32.20930903560741	3683.987324766219	605.539746664947	205.95250925918188	3623.2078884581256	519.1896317494499	364.40125113685207	3500.599166289942	623.1886757034115	414.64840335683033	3417.7404587217966	691.2878224210814	439.8409451143363	3425.049075020105	700.3487775600292	480.45446134869843	3471.0428014284203	713.9049211872101	-29.68855713897018	3529.297957360817	901.8402334416189	232.41196601792214	3489.3057837031747	919.3649693793865	366.9245212739288	3369.561354750861	700.3313496230757	407.98459314963577	3394.170919638796	606.1328054738899	445.71656343419943	3408.973653314995	603.9557462398753	481.8168816958157	3429.817354115549	686.540216223468
